<?xml version="1.0" encoding="UTF-8" standalone="no"?>
<!-- Created with Inkscape (http://www.inkscape.org/) -->

<svg
   width="200"
   height="200"
   viewBox="0 0 52.916665 52.916666"
   version="1.1"
   id="svg1"
   inkscape:version="1.3.1 (9b9bdc1480, 2023-11-25, custom)"
   sodipodi:docname="femelle.svg"
   xmlns:inkscape="http://www.inkscape.org/namespaces/inkscape"
   xmlns:sodipodi="http://sodipodi.sourceforge.net/DTD/sodipodi-0.dtd"
   xmlns="http://www.w3.org/2000/svg"
   xmlns:svg="http://www.w3.org/2000/svg">
  <sodipodi:namedview
     id="namedview1"
     pagecolor="#ffffff"
     bordercolor="#000000"
     borderopacity="0.25"
     inkscape:showpageshadow="2"
     inkscape:pageopacity="0.0"
     inkscape:pagecheckerboard="0"
     inkscape:deskcolor="#d1d1d1"
     inkscape:document-units="mm"
     inkscape:zoom="1.4538721"
     inkscape:cx="230.41917"
     inkscape:cy="63.623203"
     inkscape:window-width="1882"
     inkscape:window-height="1043"
     inkscape:window-x="3878"
     inkscape:window-y="0"
     inkscape:window-maximized="1"
     inkscape:current-layer="layer1"
     showgrid="false" />
  <defs
     id="defs1" />
  <g
     inkscape:label="Calque 1"
     inkscape:groupmode="layer"
     id="layer1">
    <path
       id="path3"
       d="m 34.939825,27.47039 c -2.248138,2.24814 -5.237084,3.486319 -8.416207,3.486319 -3.179488,0 -6.168427,-1.238179 -8.416675,-3.486319 -2.248098,-2.248134 -3.486205,-5.23708 -3.486205,-8.416567 0,-3.179488 1.238107,-6.168427 3.486205,-8.416567 2.248248,-2.2481346 5.237187,-3.4863139 8.416675,-3.4863139 3.179123,0 6.168069,1.2381793 8.416207,3.4863139 2.248137,2.24814 3.486314,5.237079 3.486314,8.416567 0,3.179487 -1.238177,6.168433 -3.486314,8.416567 z M 42.696731,12.220301 C 41.812473,10.129739 40.547127,8.2525546 38.935827,6.6412522 37.324533,5.03032 35.447704,3.7649707 33.357145,2.8807122 c -2.165907,-0.916135 -4.46512,-1.380904 -6.833527,-1.380904 -2.368766,0 -4.667979,0.464769 -6.833886,1.380904 -2.090519,0.8842585 -3.967531,2.1496078 -5.57872,3.76054 -1.611225,1.6113024 -2.876532,3.4884868 -3.760755,5.5790488 -0.9161353,2.165907 -1.3806533,4.46512 -1.3806533,6.833522 0,2.368407 0.464518,4.66762 1.3806533,6.833527 0.884223,2.09092 2.149566,3.967747 3.760755,5.579049 1.611189,1.610932 3.488201,2.876282 5.57872,3.760534 1.293242,0.547008 2.633573,0.932805 4.008319,1.155224 v 3.074433 h -6.381254 v 5.651134 h 6.381254 v 6.334344 h 5.651134 V 45.107724 H 35.73026 V 39.45659 h -6.381075 v -3.074433 c 1.374388,-0.222419 2.714719,-0.608216 4.00796,-1.155224 2.090559,-0.884252 3.967388,-2.149602 5.578682,-3.760534 1.6113,-1.611302 2.876646,-3.488129 3.760904,-5.579049 0.916136,-2.165907 1.380542,-4.46512 1.380542,-6.833527 0,-2.368402 -0.464406,-4.667615 -1.380542,-6.833522"
       style="fill:#f2779f;fill-opacity:1;fill-rule:nonzero;stroke:none;stroke-width:0.00362252" />
  </g>
</svg>
