<?xml version="1.0" encoding="UTF-8" standalone="no"?>
<!-- Created with Inkscape (http://www.inkscape.org/) -->

<svg
   width="200"
   height="200"
   viewBox="0 0 52.916665 52.916666"
   version="1.1"
   id="svg1"
   inkscape:version="1.3.1 (9b9bdc1480, 2023-11-25, custom)"
   sodipodi:docname="male.svg"
   xmlns:inkscape="http://www.inkscape.org/namespaces/inkscape"
   xmlns:sodipodi="http://sodipodi.sourceforge.net/DTD/sodipodi-0.dtd"
   xmlns="http://www.w3.org/2000/svg"
   xmlns:svg="http://www.w3.org/2000/svg">
  <sodipodi:namedview
     id="namedview1"
     pagecolor="#ffffff"
     bordercolor="#000000"
     borderopacity="0.25"
     inkscape:showpageshadow="2"
     inkscape:pageopacity="0.0"
     inkscape:pagecheckerboard="0"
     inkscape:deskcolor="#d1d1d1"
     inkscape:document-units="mm"
     inkscape:zoom="2.0560856"
     inkscape:cx="239.04647"
     inkscape:cy="73.926884"
     inkscape:window-width="1679"
     inkscape:window-height="752"
     inkscape:window-x="3916"
     inkscape:window-y="57"
     inkscape:window-maximized="0"
     inkscape:current-layer="layer1" />
  <defs
     id="defs1" />
  <g
     inkscape:label="Calque 1"
     inkscape:groupmode="layer"
     id="layer1">
    <path
       id="path4"
       d="m 30.889845,42.266629 c -2.591059,2.59106 -6.035923,4.018107 -9.700397,4.018107 -3.664057,0 -7.10934,-1.427047 -9.700399,-4.018107 -2.5910594,-2.591051 -4.0176894,-6.03592 -4.0176894,-9.700391 0,-3.66448 1.42663,-7.109342 4.0176894,-9.7004 2.591059,-2.59106 6.036342,-4.018103 9.700399,-4.018103 3.664474,0 7.109338,1.427043 9.700397,4.018103 2.591058,2.591058 4.018105,6.036341 4.018105,9.7004 0,3.664471 -1.427047,7.10934 -4.018105,9.700391 z M 29.117521,0.41263537 V 6.9257679 h 12.220063 l -8.85202,8.8520251 c -1.073414,-0.723546 -2.216138,-1.342292 -3.420233,-1.851654 -2.496284,-1.055881 -5.146213,-1.591545 -7.875883,-1.591545 -2.729671,0 -5.379604,0.535664 -7.875883,1.591545 -2.409448,1.019139 -4.5729774,2.477497 -6.4296366,4.334157 -1.8570807,1.857081 -3.3154396,4.02061 -4.3345783,6.430058 -1.0558808,2.496278 -1.59112317,5.146211 -1.59112317,7.875884 0,2.729671 0.53524237,5.379597 1.59112317,7.875882 1.0191387,2.409441 2.4774976,4.57297 4.3345783,6.430051 1.8566592,1.856664 4.0201886,3.315022 6.4296366,4.334157 2.496279,1.055879 5.146212,1.591545 7.875883,1.591545 2.72967,0 5.379599,-0.535666 7.875883,-1.591545 2.409862,-1.019135 4.572974,-2.477493 6.430051,-4.334157 1.85708,-1.857081 3.315021,-4.02061 4.334577,-6.430051 1.055463,-2.496285 1.591125,-5.146211 1.591125,-7.875882 0,-2.729673 -0.535245,-5.379606 -1.591125,-7.875884 -0.675947,-1.597808 -1.546034,-3.086224 -2.59607,-4.449811 l 8.112195,-8.112197 v 11.026408 h 6.513137 V 0.41263537 h -22.7417"
       style="fill:#7cc3f7;fill-opacity:1;fill-rule:nonzero;stroke:none;stroke-width:0.00417507" />
  </g>
</svg>
