<?xml version="1.0" encoding="UTF-8"?>
<svg id="Calque_1" data-name="Calque 1" xmlns="http://www.w3.org/2000/svg" version="1.1" viewBox="0 0 200 200">
  <defs>
    <style>
      .cls-1 {
        fill: #4371b7;
      }

      .cls-1, .cls-2, .cls-3 {
        stroke-width: 0px;
      }

      .cls-2 {
        fill: #fff;
      }

      .cls-3 {
        fill: #3b61ab;
      }
    </style>
  </defs>
  <path class="cls-3" d="M164.3,104.1c-1.8-2-4.2-3.9-7.8-5.8-13.9-7-18.1,1.3-32-5.8-13.9-7-9.7-15.3-23.6-22.3-13.9-7-18.1,1.3-32-5.8-10.7-5.4-10.7-11.6-16.5-17.4l-36.3,36.3c-.4.4-.4.9,0,1.3l67.4,67.4c2.1,2.1,3.5,4.7,4.2,7.6l12,40.2c0,.1.2.2.3.2.1,0,.2,0,.3-.2l12-40.2c.6-2.9,2.1-5.5,4.2-7.6l48-48Z"/>
  <path class="cls-1" d="M99.2.3l-46.8,46.8c5.9,5.8,5.8,12,16.5,17.4,13.9,7,18.1-1.3,32,5.8,13.9,7,9.7,15.3,23.6,22.3,13.9,7,18.1-1.3,32,5.8,3.6,1.8,6,3.8,7.8,5.8l19.4-19.4c.4-.4.4-.9,0-1.3L100.6.3c-.4-.4-.9-.4-1.3,0Z"/>
  <rect class="cls-2" x="77.3" y="61.4" width="45.2" height="45.2" rx=".3" ry=".3" transform="translate(88.7 -46) rotate(45)"/>
</svg>