<?xml version="1.0" encoding="UTF-8"?>
<svg id="Calque_1" data-name="Calque 1" xmlns="http://www.w3.org/2000/svg" version="1.1" viewBox="0 0 200 200">
  <defs>
    <style>
      .cls-1 {
        fill: #035e35;
      }

      .cls-1, .cls-2, .cls-3, .cls-4, .cls-5 {
        fill-rule: evenodd;
      }

      .cls-1, .cls-2, .cls-3, .cls-4, .cls-5, .cls-6 {
        stroke-width: 0px;
      }

      .cls-2 {
        fill: #016036;
      }

      .cls-3 {
        fill: #05893e;
      }

      .cls-4 {
        fill: #20a953;
      }

      .cls-5 {
        fill: #094;
      }

      .cls-6 {
        fill: #fff;
      }
    </style>
  </defs>
  <rect class="cls-6" x="63.8" y="19" width="85.9" height="119.7"/>
  <g>
    <path class="cls-2" d="M125,26.7c2.1,0,3.8,2.2,3.8,4.9v100.2c0,2.7-1.7,4.9-3.8,4.9h16.4c1.8,0,3.2-2.2,3.2-4.9V31.7c0-2.7-1.5-4.9-3.2-4.9h-16.4Z"/>
    <path class="cls-1" d="M104.8,194.5c-1.5,1.6.6,4-1.1,5.5-14.1-10.2-23.2-23.5-26.8-36.4h11.9c2.7,11.1,8.4,21.3,15.9,30.9Z"/>
    <path class="cls-4" d="M43.3,0h16.7c-2.6,0-4.8,3.3-4.8,7.3v148.9c0,4,2.2,7.3,4.8,7.3h-16.7c-3.1,0-5.6-3.3-5.6-7.3V7.3c0-4,2.5-7.3,5.6-7.3Z"/>
    <path class="cls-5" d="M59.9,0h97.4c2.6,0,4.8,3.3,4.8,7.3v148.9c0,4-2.2,7.3-4.8,7.3h-28.9c-4.5,14-15.5,27.2-24.7,36.4-9.4-11-11.7-23.5-14.8-36.4h-28.9c-2.6,0-4.8-3.3-4.8-7.3V7.3c0-4,2.2-7.3,4.8-7.3h0ZM75.8,26.7c-1.8,0-3.2,2.2-3.2,4.9v100.2c0,2.7,1.5,4.9,3.2,4.9h65.6c1.8,0,3.2-2.2,3.2-4.9V31.7c0-2.7-1.5-4.9-3.2-4.9h-65.6Z"/>
    <path class="cls-3" d="M108.6,0h48.7c2.6,0,4.8,3.3,4.8,7.3v148.9c0,4-2.2,7.3-4.8,7.3h-28.9c-4.5,14-15.5,27.2-24.7,36.4l4.9-36.7v-26.5h32.8c1.8,0,3.2-2.2,3.2-4.9V31.7c0-2.7-1.5-4.9-3.2-4.9h-32.8V0Z"/>
  </g>
</svg>