<?xml version="1.0" encoding="UTF-8"?>
<svg id="Calque_1" data-name="Calque 1" xmlns="http://www.w3.org/2000/svg" version="1.1" viewBox="0 0 200 200">
  <defs>
    <style>
      .cls-1 {
        fill: #e9595c;
      }

      .cls-1, .cls-2, .cls-3, .cls-4, .cls-5 {
        stroke-width: 0px;
      }

      .cls-1, .cls-2, .cls-3, .cls-5 {
        fill-rule: evenodd;
      }

      .cls-2 {
        fill: #e30519;
      }

      .cls-3 {
        fill: #c81b1f;
      }

      .cls-4 {
        fill: #fff;
      }

      .cls-5 {
        fill: #a82124;
      }
    </style>
  </defs>
  <ellipse class="cls-4" cx="109.4" cy="71.7" rx="32" ry="47.7"/>
  <g>
    <path class="cls-1" d="M95.7,1.4c6.5-.7,12.6-.4,18,1-.5,0-1,0-1.5-.1-27-1.5-50.5,28.5-52.4,63.1-2.9,53.5,19.7,92.8,39.9,131.8-26.9-37.4-59.3-79-56.4-132.6C45.2,29.8,64,4.7,95.7,1.4Z"/>
    <path class="cls-5" d="M102.5,29.4c12.4,5.9,20.8,23.2,19.7,43.2-1.1,20-11.3,36.3-24.2,40.9,2.6,1.2,5.3,1.9,8.1,2.1,16.7.9,31.3-17.9,32.6-42.1,1.3-24.1-11.2-44.4-27.8-45.3-2.9-.2-5.7.3-8.3,1.2Z"/>
    <path class="cls-2" d="M112.2,2.3c27,1.5,47.1,35.8,45.3,68.4-2.8,52.2-30.4,94.9-56.3,129.4-20.6-40-44.4-79.9-41.5-134.7C61.7,30.7,85.2.8,112.2,2.3h0ZM110.8,28.2c-16.7-.9-31.3,17.9-32.6,42.1-1.3,24.1,11.2,44.4,27.8,45.3,16.7.9,31.3-17.9,32.6-42.1,1.3-24.1-11.2-44.4-27.8-45.3Z"/>
    <path class="cls-3" d="M112.2,2.3c27,1.5,47.1,35.8,45.3,68.4-2.6,49.1-27.2,89.7-51.6,123v-78h.1c16.7.9,31.3-17.9,32.6-42.1,1.3-24.1-11.2-44.4-27.8-45.3-1.6,0-3.1,0-4.6.2V2.4c2-.2,4-.3,6-.2Z"/>
  </g>
</svg>