<?xml version="1.0" encoding="UTF-8"?>
<svg id="Calque_1" data-name="Calque 1" xmlns="http://www.w3.org/2000/svg" version="1.1" viewBox="0 0 200 200">
  <defs>
    <style>
      .cls-1 {
        fill: #fdc519;
      }

      .cls-1, .cls-2, .cls-3 {
        stroke-width: 0px;
      }

      .cls-2 {
        fill: #fed800;
      }

      .cls-3 {
        fill: #fff;
      }
    </style>
  </defs>
  <path class="cls-2" d="M174.5,74.5C174.5,33,140.6-.6,98.9,0,58.6.6,25.8,33.6,25.5,73.9c-.3,36,25,66.2,58.8,73.5.3,0,.5.3.6.6l14.8,51.8c0,.3.5.3.6,0l14.8-51.8c0-.3.3-.5.6-.6,33.6-7.2,58.8-37.1,58.8-72.9Z"/>
  <path class="cls-1" d="M38,33.4c-7.8,11.7-12.4,25.6-12.5,40.6-.3,36,25,66.2,58.8,73.5.2.2.4.4.6.6l14.8,51.8c0,.3.5.3.6,0l14.8-51.8c0-.3.3-.5.6-.6,27.9-6,50.1-27.6,56.7-55.3L38,33.4Z"/>
  <circle class="cls-3" cx="99" cy="76.2" r="33.6" transform="translate(-21.6 43.7) rotate(-22.5)"/>
</svg>