<?xml version="1.0" encoding="UTF-8"?>
<svg id="Calque_1" data-name="Calque 1" xmlns="http://www.w3.org/2000/svg" version="1.1" viewBox="0 0 200 200">
  <defs>
    <style>
      .cls-1 {
        fill: #ae881e;
      }

      .cls-1, .cls-2, .cls-3, .cls-4, .cls-5, .cls-6 {
        stroke-width: 0px;
      }

      .cls-2 {
        fill: none;
      }

      .cls-3 {
        fill: #f7ac64;
      }

      .cls-4 {
        fill: #eaa45f;
      }

      .cls-5 {
        fill: #fff;
      }

      .cls-6 {
        fill: #ffd86e;
      }
    </style>
  </defs>
  <path class="cls-2" d="M49,9.5c0,.6.2,1.2.3,1.8,0-.6-.2-1.2-.3-1.8Z"/>
  <path class="cls-2" d="M55,41.7c0,.2,0,.5.1.7,0-.2,0-.5-.1-.7Z"/>
  <path class="cls-2" d="M51.9,2.9c-1.3.1-2.5.2-3.8.4,1.3-.1,2.6-.3,3.8-.4Z"/>
  <path class="cls-2" d="M59.3,2.2c-.6,0-1.2.1-1.9.2.6,0,1.3-.1,1.9-.2Z"/>
  <path class="cls-2" d="M63,1.9c-.6,0-1.2,0-1.7.1.6,0,1.2,0,1.7-.1Z"/>
  <path class="cls-2" d="M66.6,1.6c-.6,0-1.1,0-1.7.1.6,0,1.1,0,1.7-.1Z"/>
  <path class="cls-2" d="M52.5,29.3c0,.5.2,1,.3,1.5-.1-.5-.2-1-.3-1.5Z"/>
  <path class="cls-2" d="M53.6,35.2c.1.6.2,1.1.3,1.7-.1-.5-.2-1.1-.3-1.7Z"/>
  <path class="cls-2" d="M50,15.8c0,.6.2,1.2.3,1.8-.1-.6-.2-1.2-.3-1.8Z"/>
  <path class="cls-2" d="M51.3,23.1c0,.1,0,.2,0,.4,0-.1,0-.2,0-.4Z"/>
  <path class="cls-2" d="M55.6,2.5c-.7,0-1.4.1-2.2.2.7,0,1.4-.1,2.2-.2Z"/>
  <path class="cls-2" d="M92.2.2c-.6,0-1.2,0-1.8,0,.6,0,1.2,0,1.8,0Z"/>
  <path class="cls-2" d="M95.5.1c-.6,0-1.2,0-1.7,0,.6,0,1.2,0,1.7,0Z"/>
  <path class="cls-2" d="M88.9.3c-.8,0-1.6,0-2.4,0,.8,0,1.6,0,2.4,0Z"/>
  <path class="cls-2" d="M70.1,1.4c-.6,0-1.1,0-1.7.1.6,0,1.1,0,1.7-.1Z"/>
  <path class="cls-2" d="M98.7,0c-.6,0-1.1,0-1.7,0,.6,0,1.1,0,1.7,0Z"/>
  <path class="cls-2" d="M77.1.9c-.6,0-1.1,0-1.7.1.6,0,1.1,0,1.7-.1Z"/>
  <path class="cls-2" d="M73.6,1.1c-.6,0-1.1,0-1.7.1.6,0,1.1,0,1.7-.1Z"/>
  <path class="cls-2" d="M80.6.7c-.6,0-1.1,0-1.7,0,.6,0,1.1,0,1.7,0Z"/>
  <path class="cls-2" d="M84.1.5c-.6,0-1.2,0-1.9,0,.6,0,1.2,0,1.9,0Z"/>
  <path class="cls-2" d="M60.5,65.3c.1.5.2.9.4,1.4-.1-.5-.2-.9-.4-1.4Z"/>
  <path class="cls-2" d="M73.1,107.8c.2.6.4,1.2.6,1.9-.2-.6-.4-1.2-.6-1.9Z"/>
  <path class="cls-2" d="M76.8,118.7c.3.7.5,1.5.8,2.2-.3-.7-.5-1.5-.8-2.2Z"/>
  <path class="cls-2" d="M75.2,114c.2.6.4,1.2.6,1.8-.2-.6-.4-1.2-.6-1.8Z"/>
  <path class="cls-2" d="M70,98.1c.2.5.3,1,.5,1.5-.2-.5-.3-1-.5-1.5Z"/>
  <path class="cls-2" d="M71.5,102.9c.2.6.4,1.3.6,1.9-.2-.6-.4-1.3-.6-1.9Z"/>
  <path class="cls-2" d="M56.3,47.9c.1.5.2.9.3,1.4-.1-.5-.2-.9-.3-1.4Z"/>
  <path class="cls-2" d="M78.4,123.4c.3.7.5,1.5.8,2.2-.3-.7-.5-1.5-.8-2.2Z"/>
  <path class="cls-2" d="M84,139.3c.3.8.6,1.7.9,2.5-.3-.8-.6-1.7-.9-2.5Z"/>
  <path class="cls-2" d="M80.3,128.8c.4,1.1.8,2.2,1.2,3.3-.4-1.1-.8-2.2-1.2-3.3Z"/>
  <path class="cls-2" d="M82.3,134.5c.3.8.6,1.7.9,2.5-.3-.8-.6-1.7-.9-2.5Z"/>
  <path class="cls-2" d="M59,59.2c0,.3.2.7.2,1,0-.3-.2-.7-.2-1Z"/>
  <path class="cls-2" d="M61.9,70.5c.1.6.3,1.1.4,1.7-.1-.6-.3-1.1-.4-1.7Z"/>
  <path class="cls-2" d="M68.1,92c.2.5.3,1,.5,1.6-.2-.5-.3-1-.5-1.6Z"/>
  <path class="cls-2" d="M57.6,53.3c.1.5.3,1.1.4,1.6-.1-.5-.3-1.1-.4-1.6Z"/>
  <path class="cls-2" d="M65.1,82c.1.5.3.9.4,1.4-.1-.5-.3-.9-.4-1.4Z"/>
  <path class="cls-2" d="M66.5,86.9c.2.6.4,1.2.5,1.8-.2-.6-.4-1.2-.5-1.8Z"/>
  <path class="cls-2" d="M63.4,75.9c.1.4.2.9.4,1.3-.1-.4-.2-.9-.4-1.3Z"/>
  <path class="cls-5" d="M130,27.6c.8,0,1.7,0,2.5.1-.8,0-1.7,0-2.5-.1Z"/>
  <path class="cls-5" d="M102.1,131.1c-.6-1.6-1.2-3.2-1.7-4.9.6,1.6,1.2,3.2,1.7,4.9Z"/>
  <path class="cls-5" d="M106.2,26.9c-11.5,0-23,.5-34.5,1.3,4.3,21.2,9.7,41.7,16.4,62.3,3.3,10.4,6.9,20.6,10.5,30.8,11.3-30.4,18.6-60.7,26.7-94-6.4-.3-12.7-.4-19.1-.4Z"/>
  <path class="cls-1" d="M119.2,105.7c1.7-5,3.4-10,5-15,6.6-20.7,12.1-41.2,16.5-62.5-2.7-.2-5.4-.4-8.2-.5-.8,0-1.7,0-2.5-.1-1.6,0-3.1-.2-4.7-.2-8.1,33.3-15.5,63.6-26.7,94,.6,1.6,1.2,3.2,1.7,4.9.6,1.6,1.2,3.2,1.7,4.9,1.4,3.8,2.7,7.5,4.1,11.3,0,0,0,0,0,0h0c4.4-12.1,8.8-24.3,13-36.5Z"/>
  <path class="cls-6" d="M85,141.8c-.3-.8-.6-1.7-.9-2.5-.3-.7-.5-1.5-.8-2.2-.3-.8-.6-1.7-.9-2.5-.3-.8-.6-1.6-.9-2.5-.4-1.1-.8-2.2-1.2-3.3-.4-1.1-.8-2.1-1.1-3.2-.3-.7-.5-1.5-.8-2.2-.3-.8-.6-1.7-.9-2.5-.3-.7-.5-1.5-.8-2.2-.3-.9-.6-1.9-1-2.8-.2-.6-.4-1.2-.6-1.8-.5-1.5-1-2.9-1.5-4.4-.2-.6-.4-1.2-.6-1.9-.3-1-.6-2-1-2.9-.2-.6-.4-1.3-.6-1.9-.3-1.1-.7-2.1-1-3.2-.2-.5-.3-1-.5-1.5-.5-1.5-1-3-1.4-4.6-.2-.5-.3-1-.5-1.6-.3-1.1-.7-2.2-1-3.3-.2-.6-.4-1.2-.5-1.8-.3-1.2-.7-2.3-1-3.5-.1-.5-.3-.9-.4-1.4-.5-1.6-.9-3.2-1.4-4.8-.1-.4-.2-.9-.4-1.3-.3-1.2-.7-2.5-1-3.8-.1-.6-.3-1.1-.4-1.7-.3-1.3-.7-2.5-1-3.8-.1-.5-.2-.9-.4-1.4-.4-1.7-.9-3.4-1.3-5.1,0-.3-.2-.7-.2-1-.3-1.4-.7-2.8-1-4.3-.1-.5-.3-1.1-.4-1.6-.3-1.3-.6-2.7-.9-4-.1-.5-.2-.9-.3-1.4-.4-1.8-.8-3.6-1.2-5.5,0-.2,0-.5-.1-.7-.3-1.6-.7-3.2-1-4.9-.1-.5-.2-1.1-.3-1.7-.3-1.4-.6-2.8-.8-4.3-.1-.5-.2-1-.3-1.5-.4-1.9-.7-3.9-1.1-5.8,0-.1,0-.2,0-.4-.3-1.8-.7-3.7-1-5.6-.1-.6-.2-1.2-.3-1.8-.3-1.5-.5-3-.8-4.5,0-.6-.2-1.2-.3-1.8-.3-2.1-.7-4.1-1-6.2,1.3-.1,2.6-.3,3.8-.4.5,0,1.1,0,1.6-.1.7,0,1.4-.1,2.2-.2.6,0,1.2-.1,1.8-.2.6,0,1.3-.1,1.9-.2.6,0,1.3-.1,1.9-.2.6,0,1.2,0,1.7-.1.6,0,1.3-.1,1.9-.2.6,0,1.1,0,1.7-.1.6,0,1.3,0,1.9-.1.6,0,1.1,0,1.7-.1.6,0,1.2,0,1.9-.1.6,0,1.1,0,1.7-.1.6,0,1.2,0,1.8-.1.6,0,1.1,0,1.7-.1.6,0,1.2,0,1.8-.1.6,0,1.1,0,1.7,0,.6,0,1.1,0,1.7,0,.6,0,1.2,0,1.9,0,.8,0,1.5,0,2.3-.1.8,0,1.6,0,2.4,0,.5,0,1,0,1.5,0,.6,0,1.2,0,1.8,0,.5,0,1.1,0,1.6,0,.6,0,1.2,0,1.7,0,.5,0,1.1,0,1.6,0,.6,0,1.1,0,1.7,0,.5,0,1.1,0,1.6,0,.3,0,.6,0,1,0-23.7-.2-46.8.9-75.1,3.2,10.3,57.7,25.9,97,45.2,141.8,7.4,17.1,16.5,35,28.8,55-7.5-21.1-8.6-39.9-15.2-57.9,0,0,0-.2-.1-.3Z"/>
  <path class="cls-6" d="M100.2,200s0,0,0-.1c0,0,0,0,0,.1,0,0,0,0,0,0Z"/>
  <path class="cls-3" d="M137.4,113.2c-.2.5-.4,1.1-.5,1.6.2-.5.4-1.1.5-1.6Z"/>
  <path class="cls-3" d="M138.8,108.9c-.2.6-.4,1.3-.6,1.9.2-.6.4-1.3.6-1.9Z"/>
  <path class="cls-3" d="M140.2,104.6c-.2.7-.5,1.5-.7,2.2.2-.7.5-1.5.7-2.2Z"/>
  <path class="cls-3" d="M135.9,117.6c-.1.4-.3.8-.4,1.3.1-.4.3-.8.4-1.3Z"/>
  <path class="cls-3" d="M134.4,121.8c-.1.3-.2.7-.4,1,.1-.3.2-.7.4-1Z"/>
  <path class="cls-3" d="M131.3,130.8s0,0,0,0c0,0,0,0,0,0Z"/>
  <path class="cls-3" d="M132.8,126.4c0,.1-.1.3-.2.4,0-.1.1-.3.2-.4Z"/>
  <path class="cls-3" d="M100.7,198.5l5.5-56.3s0,0,0,0c-1.4-3.7-2.7-7.5-4.1-11.3-.6-1.6-1.2-3.2-1.7-4.9-.6-1.6-1.2-3.2-1.7-4.9-3.6-10.2-7.2-20.5-10.5-30.8-6.6-20.6-12-41.1-16.4-62.3,11.5-.8,23-1.3,34.5-1.3h0V0c-1.9,0-3.9,0-5.8,0-.5,0-1.1,0-1.6,0-.6,0-1.1,0-1.7,0-.5,0-1.1,0-1.6,0-.6,0-1.1,0-1.7,0-.5,0-1,0-1.6,0-.6,0-1.2,0-1.8,0-.5,0-1,0-1.5,0-.8,0-1.6,0-2.4,0-.8,0-1.5,0-2.3.1-.6,0-1.2,0-1.9,0-.6,0-1.1,0-1.7,0-.6,0-1.1,0-1.7,0-.6,0-1.2,0-1.8.1-.6,0-1.1,0-1.7.1-.6,0-1.2,0-1.8.1-.6,0-1.1,0-1.7.1-.6,0-1.2,0-1.9.1-.6,0-1.1,0-1.7.1-.6,0-1.3,0-1.9.1-.6,0-1.1,0-1.7.1-.6,0-1.3.1-1.9.2-.6,0-1.2,0-1.7.1-.6,0-1.3.1-1.9.2-.6,0-1.2.1-1.9.2-.6,0-1.2.1-1.8.2-.7,0-1.4.1-2.2.2-.5,0-1.1,0-1.6.1-1.3.1-2.5.2-3.8.4.3,2.1.6,4.2,1,6.2,0,.6.2,1.2.3,1.8.2,1.5.5,3,.8,4.5,0,.6.2,1.2.3,1.8.3,1.9.7,3.7,1,5.6,0,.1,0,.2,0,.4.4,2,.7,3.9,1.1,5.8,0,.5.2,1,.3,1.5.3,1.4.6,2.9.8,4.3.1.6.2,1.1.3,1.7.3,1.6.7,3.3,1,4.9,0,.2,0,.5.1.7.4,1.8.8,3.7,1.2,5.5.1.5.2.9.3,1.4.3,1.4.6,2.7.9,4,.1.5.3,1.1.4,1.6.3,1.4.7,2.9,1,4.3,0,.3.2.7.2,1,.4,1.7.9,3.4,1.3,5.1.1.5.2.9.4,1.4.3,1.3.7,2.5,1,3.8.1.6.3,1.1.4,1.7.3,1.3.7,2.5,1,3.8.1.4.2.9.4,1.3.5,1.6.9,3.2,1.4,4.8.1.5.3.9.4,1.4.3,1.2.7,2.3,1,3.5.2.6.4,1.2.5,1.8.3,1.1.7,2.2,1,3.3.2.5.3,1,.5,1.6.5,1.5.9,3.1,1.4,4.6.2.5.3,1,.5,1.5.3,1.1.7,2.1,1,3.2.2.6.4,1.3.6,1.9.3,1,.6,2,1,2.9.2.6.4,1.2.6,1.9.5,1.5,1,2.9,1.5,4.4.2.6.4,1.2.6,1.8.3.9.6,1.9,1,2.8.3.7.5,1.5.8,2.2.3.8.6,1.7.9,2.5.3.7.5,1.5.8,2.2.4,1.1.8,2.1,1.1,3.2.4,1.1.8,2.2,1.2,3.3.3.8.6,1.6.9,2.5.3.8.6,1.7.9,2.5.3.7.5,1.5.8,2.2.3.8.6,1.7.9,2.5,0,0,0,.2.1.3,6.5,18,7.6,36.8,15.2,57.9,0,0,0,0,0,0,0,0,0,0,0,0,0,0,0,0,0-.1.2-.6.5-1.2.7-1.8,0,.2-.2.3-.2.5Z"/>
  <path class="cls-3" d="M164.3,3.3c-3.6,23.2-7.8,43.4-12.7,62.1,4.8-18.8,9.1-39,12.7-62.1Z"/>
  <path class="cls-3" d="M149.3,74.4c-.3,1.3-.7,2.5-1,3.8.4-1.3.7-2.5,1-3.8Z"/>
  <path class="cls-3" d="M148.1,78.7c-.3,1.2-.7,2.4-1,3.6.3-1.2.7-2.4,1-3.6Z"/>
  <path class="cls-3" d="M151.7,65.4c-.4,1.4-.7,2.9-1.1,4.3.4-1.4.7-2.8,1.1-4.3Z"/>
  <path class="cls-3" d="M150.5,69.9c-.4,1.4-.7,2.7-1.1,4,.4-1.3.7-2.7,1.1-4Z"/>
  <path class="cls-3" d="M141.6,100.3c-.3.8-.5,1.7-.8,2.5.3-.8.5-1.7.8-2.5Z"/>
  <path class="cls-3" d="M145.6,87.3c-.3,1.1-.6,2.2-1,3.3.3-1.1.7-2.2,1-3.3Z"/>
  <path class="cls-3" d="M146.8,83.1c-.3,1.1-.7,2.3-1,3.4.3-1.1.7-2.3,1-3.4Z"/>
  <path class="cls-3" d="M142.9,96.2c-.3.9-.5,1.7-.8,2.6.3-.9.5-1.7.8-2.6Z"/>
  <path class="cls-3" d="M144.3,91.8c-.3,1-.6,1.9-.9,2.9.3-1,.6-1.9.9-2.9Z"/>
  <path class="cls-3" d="M124.1,90.7c-1.6,5-3.3,10-5,15,1.7-5,3.4-10,5-15Z"/>
  <path class="cls-4" d="M106.2,26.9h0c6.4,0,12.7.2,19.1.4,1.6,0,3.1.1,4.7.2.8,0,1.7,0,2.5.1,2.7.2,5.4.3,8.2.5-4.4,21.3-9.8,41.8-16.5,62.5-1.6,5-3.3,10-5,15-4.2,12.3-8.5,24.4-13,36.5h0s-5.5,56.3-5.5,56.3c0-.2.2-.3.2-.5,9.9-19,19.5-37.2,25.8-54.6,1.5-4.2,3-8.4,4.5-12.5,0,0,0,0,0,0,.5-1.3.9-2.6,1.4-4,0-.1.1-.3.2-.4.4-1.2.8-2.4,1.2-3.6.1-.3.2-.7.4-1,.3-1,.7-2,1-3,.1-.4.3-.8.4-1.3.3-.9.6-1.8.9-2.8.2-.5.4-1.1.5-1.6.3-.8.5-1.6.8-2.4.2-.6.4-1.3.6-1.9.2-.7.5-1.4.7-2.1.2-.7.5-1.5.7-2.2.2-.6.4-1.2.6-1.8.3-.8.5-1.7.8-2.5.2-.5.3-1,.5-1.6.3-.9.5-1.7.8-2.6.2-.5.3-1,.5-1.5.3-1,.6-1.9.9-2.9.1-.4.2-.8.4-1.2.3-1.1.7-2.2,1-3.3,0-.3.2-.6.3-.8.3-1.1.7-2.3,1-3.4,0-.2.1-.5.2-.7.3-1.2.7-2.4,1-3.6,0-.2.1-.4.2-.6.4-1.3.7-2.5,1-3.8,0-.1,0-.3.1-.4.4-1.3.7-2.7,1.1-4,0,0,0-.1,0-.2.4-1.4.7-2.8,1.1-4.3,0,0,0,0,0,0,4.8-18.8,9.1-39,12.7-62.1C142.5,1.1,124.4,0,106.2,0h0v26.9Z"/>
</svg>